# Alias OBJ Model File
# Exported from SketchUp, (c) 2000-2012 Trimble Navigation Limited
# File units = centimeters

mtllib model1_015.mtl

g Mesh1 Model

usemtl FrontColor
v -19.4114 -12.75 72.4444
vt -7.64229 -28.5214
vn 0 1 -0
v -33.221 -12.75 62.25
vt -13.0791 -24.5079
v -37.5 -12.75 64.9519
vt -14.7638 -25.5716
f 1/1/1 2/2/1 3/3/1

v -15.221 -12.75 62.25
vt -5.99251 -24.5079
f 2/2/1 1/1/1 4/4/1

v -1.37773e-14 -12.75 75
vt -5.42412e-15 -29.5276
f 4/4/1 1/1/1 5/5/1

vt 3.85412 -5.01969
vn -2.65953e-16 0 1
vt -3.85412 -5.01969
vn -0.258819 0 0.965926
v -19.4114 -15 72.4444
vt -3.85412 -5.90551
v -1.37773e-14 -15 75
vt 3.85412 -5.90551
f 5/6/2 1/7/3 6/8/3 7/9/2 

vn -0.5 0 0.866025
v -37.5 -15 64.9519
f 1/6/3 3/7/4 8/8/4 6/9/3 

v -53.033 -12.75 53.033
vn -0.707107 0 0.707107
v -53.033 -15 53.033
f 3/6/4 9/7/5 10/8/5 8/9/4 

v -48.75 -12.75 48.75
vt -19.1929 -19.1929
vt -20.8791 -20.8791
f 11/10/1 9/11/1 3/3/1

v -53.033 -12.75 -53.033
vt -20.8791 20.8791
f 12/12/1 9/11/1 11/10/1

v -64.9519 -12.75 -37.5
vt -25.5716 14.7638
f 13/13/1 9/11/1 12/12/1

v -64.9519 -12.75 37.5
vt -25.5716 -14.7638
f 13/13/1 14/14/1 9/11/1

v -72.4444 -12.75 -19.4114
vt -28.5214 7.64229
f 15/15/1 14/14/1 13/13/1

v -72.4444 -12.75 19.4114
vt -28.5214 -7.64229
f 15/15/1 16/16/1 14/14/1

v -75 -12.75 -9.18485e-15
vt -29.5276 3.61608e-15
f 16/16/1 15/15/1 17/17/1

vn -1 0 -3.63936e-16
vn -0.965926 0 -0.258819
v -72.4444 -15 -19.4114
v -75 -15 -9.18485e-15
f 17/6/6 15/7/7 18/8/7 19/9/6 

vn -0.866025 0 -0.5
v -64.9519 -15 -37.5
f 15/6/7 13/7/8 20/8/8 18/9/7 

vn -0.707107 0 -0.707107
v -53.033 -15 -53.033
f 13/6/8 12/7/9 21/8/9 20/9/8 

v -37.5 -12.75 -64.9519
vn -0.5 0 -0.866025
v -37.5 -15 -64.9519
f 12/6/9 22/7/10 23/8/10 21/9/9 

v -48.75 -12.75 -48.75
vt -19.1929 19.1929
vt -14.7638 25.5716
f 12/12/1 24/18/1 22/19/1

f 24/18/1 12/12/1 11/10/1

vt -19.1929 -5.01969
vn -1 0 -0
vt 19.1929 -5.01969
v -48.75 -2.55 48.75
vt 19.1929 -1.00394
v -48.75 -2.55 -48.75
vt -19.1929 -1.00394
f 24/20/11 11/21/11 25/22/11 26/23/11 

v -15.221 -12.75 48.75
vt -5.99251 -5.01969
vn 0 0 1
v 48.75 -12.75 48.75
v 48.75 -2.55 48.75
v -33.221 -12.75 48.75
vt -13.0791 -5.01969
v -33.221 -5.1 48.75
vt -13.0791 -2.00787
v -15.221 -5.1 48.75
vt -5.99251 -2.00787
f 27/24/12 28/21/12 29/22/12 25/23/12 11/20/12 30/25/12 31/26/12 32/27/12 

vt -5.99251 -19.1929
vt 19.1929 -19.1929
f 27/28/1 5/5/1 28/29/1

f 4/4/1 5/5/1 27/28/1

v -15.221 -10.2 62.25
vt -24.5079 -4.01575
vn 1 0 -0
vt -24.5079 -5.01969
vt -19.1929 -2.00787
v -15.221 -5.1 53.25
vt -20.9646 -2.00787
v -15.221 -7.65 53.25
vt -20.9646 -3.01181
v -15.221 -7.65 57.75
vt -22.7362 -3.01181
v -15.221 -10.2 57.75
vt -22.7362 -4.01575
f 33/30/13 4/31/13 27/20/13 32/32/13 34/33/13 35/34/13 36/35/13 37/36/13 

vt -5.99251 -4.01575
v -33.221 -10.2 62.25
vt -13.0791 -4.01575
f 2/25/12 4/24/12 33/37/12 38/38/12 

vt -5.99251 -22.7362
v -33.221 -10.2 57.75
vt -13.0791 -22.7362
f 37/39/1 39/40/1 38/2/1 33/4/1 

v -33.221 -7.65 57.75
vt -13.0791 -3.01181
vt -5.99251 -3.01181
f 40/41/12 39/38/12 37/37/12 36/42/12 

vt 24.5079 -4.01575
vt 22.7362 -4.01575
vt 22.7362 -3.01181
v -33.221 -7.65 53.25
vt 20.9646 -3.01181
v -33.221 -5.1 53.25
vt 20.9646 -2.00787
vt 19.1929 -2.00787
vt 24.5079 -5.01969
f 38/43/11 39/44/11 40/45/11 41/46/11 42/47/11 31/48/11 30/21/11 2/49/11 

vt -5.99251 -20.9646
vt -13.0791 -20.9646
f 35/50/1 41/51/1 40/40/1 36/39/1 

f 42/26/12 41/41/12 35/42/12 34/27/12 

vt -13.0791 -19.1929
f 32/28/1 31/52/1 42/51/1 34/50/1 

f 30/52/1 3/3/1 2/2/1

f 11/10/1 3/3/1 30/52/1

v 19.4114 -12.75 72.4444
vt 7.64229 -28.5214
f 28/29/1 5/5/1 43/53/1

vn 0.258819 0 0.965926
v 19.4114 -15 72.4444
f 43/6/14 5/7/2 7/8/2 44/9/14 

v 72.4444 -15 19.4114
vn 0 -1 -0
v 64.9519 -15 37.5
v 53.033 -15 53.033
v 37.5 -15 64.9519
vt 5.42412e-15 -29.5276
vt 14.7638 -25.5716
vt 20.8791 -20.8791
v -64.9519 -15 37.5
vt 25.5716 -14.7638
v -72.4444 -15 19.4114
vt 28.5214 -7.64229
vt 29.5276 3.61608e-15
vt 28.5214 7.64229
vt 25.5716 14.7638
vt 20.8791 20.8791
vt 14.7638 25.5716
v -19.4114 -15 -72.4444
vt 7.64229 28.5214
v 4.59243e-15 -15 -75
vt -1.80804e-15 29.5276
v 19.4114 -15 -72.4444
vt -7.64229 28.5214
v 37.5 -15 -64.9519
v 53.033 -15 -53.033
v 64.9519 -15 -37.5
v 72.4444 -15 -19.4114
v 75 -15 -0
vt -29.5276 0
f 45/16/15 46/14/15 47/11/15 48/3/15 44/1/15 7/54/15 6/53/15 8/55/15 10/56/15 49/57/15 50/58/15 19/59/15 18/60/15 20/61/15 21/62/15 23/63/15 51/64/15 52/65/15 53/66/15 54/19/15 55/12/15 56/13/15 57/15/15 58/67/15 

v 72.4444 -12.75 19.4114
vn 0.965926 0 0.258819
v 64.9519 -12.75 37.5
vn 0.866025 0 0.5
f 59/6/16 60/7/17 46/8/17 45/9/16 

v 64.9519 -12.75 -37.5
f 61/61/1 60/57/1 59/58/1

v 53.033 -12.75 -53.033
f 62/62/1 60/57/1 61/61/1

v 53.033 -12.75 53.033
f 62/62/1 63/56/1 60/57/1

v 48.75 -12.75 -48.75
vt 19.1929 19.1929
f 62/62/1 64/68/1 63/56/1

v 37.5 -12.75 -64.9519
f 65/63/1 64/68/1 62/62/1

v 19.4114 -12.75 -72.4444
f 66/64/1 64/68/1 65/63/1

v 4.59243e-15 -12.75 -75
vt 1.80804e-15 29.5276
f 67/69/1 64/68/1 66/64/1

v -19.4114 -12.75 -72.4444
f 68/66/1 64/68/1 67/69/1

f 22/19/1 64/68/1 68/66/1

f 22/19/1 24/18/1 64/68/1

vn 0 0 -1
v 48.75 -2.55 -48.75
f 64/20/18 24/21/18 26/22/18 69/23/18 

v -42 -2.55 -0
vt -16.5354 0
f 26/18/1 70/70/1 69/68/1

v -42 -2.55 42
vt -16.5354 -16.5354
f 70/70/1 26/18/1 71/71/1

f 25/10/1 71/71/1 26/18/1

f 71/71/1 25/10/1 29/29/1

v 0 -2.55 42
vt 0 -16.5354
f 71/71/1 29/29/1 72/72/1

v 0 -2.55 -0
vt 0 0
f 72/72/1 29/29/1 73/73/1

f 69/68/1 73/73/1 29/29/1

f 69/68/1 70/70/1 73/73/1

vt 0 -1.00394
vt 16.5354 -1.00394
v -42 -0.3 -0
vt 16.5354 -0.11811
v 0 -0.3 -0
vt 0 -0.11811
f 73/74/18 70/75/18 74/76/18 75/77/18 

v -42 -0.3 42
f 70/74/11 71/75/11 76/76/11 74/77/11 

vt -16.5354 -1.00394
v 0 -0.3 42
vt -16.5354 -0.11811
f 71/78/12 72/74/12 77/77/12 76/79/12 

v 0 -0.3 13.4295
vt -5.28719 -0.11811
v 0 -0.3 31.4295
vt -12.3738 -0.11811
f 75/77/13 78/80/13 79/81/13 77/79/13 72/78/13 73/74/13 

vt 0 -12.3738
v -4.5 -0.3 31.4295
vt -1.77165 -12.3738
v -4.5 -0.3 13.4295
vt -1.77165 -5.28719
vt 0 -5.28719
f 77/72/1 79/82/1 80/83/1 81/84/1 78/85/1 75/73/1 74/70/1 76/71/1 

vt -1.77165 -0.11811
vn 4.09105e-17 1.24841e-16 1
vt -5.06218e-16 -0.11811
v 18 9.9 31.4295
vt 7.08661 3.89764
v 31.5 9.9 31.4295
vt 12.4016 3.89764
v 31.5 12.45 31.4295
vt 12.4016 4.90157
v 13.5 12.45 31.4295
vt 5.31496 4.90157
v 13.5 9.9 31.4295
vt 5.31496 3.89764
v 9 9.9 31.4295
vt 3.54331 3.89764
v 9 7.35 31.4295
vt 3.54331 2.8937
v 4.5 7.35 31.4295
vt 1.77165 2.8937
v 4.5 4.8 31.4295
vt 1.77165 1.88976
v 0 4.8 31.4295
vt -5.06218e-16 1.88976
v 0 2.25 31.4295
vt -5.06218e-16 0.885827
v -4.5 2.25 31.4295
vt -1.77165 0.885827
f 80/86/19 79/87/19 82/88/19 83/89/19 84/90/19 85/91/19 86/92/19 87/93/19 88/94/19 89/95/19 90/96/19 91/97/19 92/98/19 93/99/19 

f 79/82/1 78/85/1 81/84/1 80/83/1 

v 18 9.9 13.4295
vt -5.28719 8.0871
vn 0.493013 -0.870022 7.38574e-18
vt -12.3738 8.0871
vt -12.3738 -0.0582298
vt -5.28719 -0.0582298
f 94/100/20 82/101/20 79/102/20 78/103/20 

vt -12.4016 -12.3738
vt -7.08661 -12.3738
vt -7.08661 -5.28719
v 31.5 9.9 13.4295
vt -12.4016 -5.28719
f 83/104/15 82/105/15 94/106/15 95/107/15 

v 13.5 9.9 13.4295
vt -5.31496 -2.67839
vn -6.23187e-17 -0.870022 -0.493013
v 13.5 20.1 -4.57054
vt -5.31496 5.46694
v 31.5 20.1 -4.57054
vt -12.4016 5.46694
vt -12.4016 -2.67839
vt -7.08661 -2.67839
f 96/108/21 97/109/21 98/110/21 95/111/21 94/112/21 

v 13.5 20.1 4.42946
vt 1.74388 7.91339
vn -1 7.11319e-16 2.5125e-17
v 13.5 20.1 -0.0705443
vt -0.0277733 7.91339
v 13.5 22.35 -0.0705443
vt -0.0277733 8.79921
v 13.5 22.35 -52.5705
vt -20.6971 8.79921
v 13.5 20.1 -52.5705
vt -20.6971 7.91339
vt -1.79943 7.91339
vt 5.28719 3.89764
vt 12.3738 3.89764
vt 12.3738 4.90157
v 13.5 12.45 13.4295
vt 5.28719 4.90157
v 13.5 15 13.4295
vt 5.28719 5.90551
v 13.5 15 8.92946
vt 3.51553 5.90551
v 13.5 17.55 8.92946
vt 3.51553 6.90945
v 13.5 17.55 4.42946
vt 1.74388 6.90945
f 99/113/22 100/114/22 101/115/22 102/116/22 103/117/22 97/118/22 96/119/22 86/120/22 85/121/22 104/122/22 105/123/22 106/124/22 107/125/22 108/126/22 

v 31.5 20.1 4.42946
vt 12.4016 -1.74388
v 31.5 20.1 -0.0705443
vt 12.4016 0.0277733
vt 5.31496 0.0277733
vt 5.31496 -1.74388
f 109/127/1 110/128/1 100/129/1 99/130/1 

vt -5.28719 3.89764
vt 1.79943 7.91339
vt 0.0277733 7.91339
vt -1.74388 7.91339
v 31.5 17.55 4.42946
vt -1.74388 6.90945
v 31.5 17.55 8.92946
vt -3.51553 6.90945
v 31.5 15 8.92946
vt -3.51553 5.90551
v 31.5 15 13.4295
vt -5.28719 5.90551
v 31.5 12.45 13.4295
vt -5.28719 4.90157
vt -12.3738 4.90157
vt -12.3738 3.89764
f 95/131/13 98/132/13 110/133/13 109/134/13 111/135/13 112/136/13 113/137/13 114/138/13 115/139/13 84/140/13 83/141/13 

vt -12.4016 0.0277733
vt -12.4016 1.79943
vt -5.31496 1.79943
vt -5.31496 20.6971
v 66 20.1 -52.5705
vt -25.9843 20.6971
v 66 20.1 -0.0705443
vt -25.9843 0.0277733
f 110/142/15 98/143/15 97/144/15 103/145/15 116/146/15 117/147/15 

vt -25.9843 7.91339
vt -5.31496 7.91339
vt -5.31496 8.79921
v 66 22.35 -52.5705
vt -25.9843 8.79921
f 116/148/18 103/149/18 102/150/18 118/151/18 

vt 5.31496 20.6971
v 66 22.35 -0.0705443
vt 25.9843 0.0277733
vt 25.9843 20.6971
f 102/152/1 101/129/1 119/153/1 118/154/1 

vt 5.31496 7.91339
vt 12.4016 7.91339
vt 25.9843 7.91339
vt 25.9843 8.79921
vt 5.31496 8.79921
f 100/155/12 110/156/12 117/157/12 119/158/12 101/159/12 

vt 20.6971 7.91339
vt 20.6971 8.79921
vt 0.0277733 8.79921
f 117/133/13 116/160/13 118/161/13 119/162/13 

vt 12.4016 6.90945
vt 5.31496 6.90945
f 111/163/12 109/156/12 99/155/12 108/164/12 

vt 12.4016 -3.51553
vt 5.31496 -3.51553
f 112/165/1 111/127/1 108/130/1 107/166/1 

vt 12.4016 5.90551
vt 5.31496 5.90551
f 113/167/12 112/163/12 107/164/12 106/168/12 

vt 12.4016 -5.28719
vt 5.31496 -5.28719
f 114/169/1 113/165/1 106/166/1 105/170/1 

f 115/90/12 114/167/12 105/168/12 104/91/12 

vt 5.31496 -12.3738
vt 12.4016 -12.3738
f 85/171/1 84/172/1 115/169/1 104/170/1 

vt 3.54331 -12.3738
v 9 9.9 13.4295
vt 3.54331 -5.28719
f 87/173/1 86/171/1 96/170/1 120/174/1 

vt -3.54331 3.89764
vn 8.04358e-16 2.23121e-15 -1
vt -5.31496 3.89764
vt -7.08661 3.89764
vt -4.25279e-15 -0.11811
vt 1.77165 -0.11811
v -4.5 2.25 13.4295
vt 1.77165 0.885827
v 0 2.25 13.4295
vt -4.25279e-15 0.885827
v 0 4.8 13.4295
vt -4.25279e-15 1.88976
v 4.5 4.8 13.4295
vt -1.77165 1.88976
v 4.5 7.35 13.4295
vt -1.77165 2.8937
v 9 7.35 13.4295
vt -3.54331 2.8937
f 120/175/23 96/176/23 94/177/23 78/178/23 81/179/23 121/180/23 122/181/23 123/182/23 124/183/23 125/184/23 126/185/23 

vt 5.28719 -0.11811
vt 12.3738 -0.11811
vt 12.3738 0.885827
vt 5.28719 0.885827
f 81/186/11 80/187/11 93/188/11 121/189/11 

f 92/82/1 122/85/1 121/84/1 93/83/1 

vt 12.3738 1.88976
vt 5.28719 1.88976
f 92/188/11 91/190/11 123/191/11 122/189/11 

vt 1.77165 -12.3738
vt 1.77165 -5.28719
f 91/82/1 90/192/1 124/193/1 123/85/1 

vt 12.3738 2.8937
vt 5.28719 2.8937
f 90/190/11 89/194/11 125/195/11 124/191/11 

f 89/192/1 88/173/1 126/174/1 125/193/1 

f 88/194/11 87/120/11 120/119/11 126/195/11 

f 28/20/13 64/21/13 69/22/13 29/23/13 

f 28/29/1 63/56/1 64/68/1

v 37.5 -12.75 64.9519
f 28/29/1 127/55/1 63/56/1

f 28/29/1 43/53/1 127/55/1

vn 0.5 0 0.866025
f 127/6/24 43/7/14 44/8/14 48/9/24 

vn 0.707107 0 0.707107
f 63/6/25 127/7/24 48/8/24 47/9/25 

f 60/6/17 63/7/25 47/8/25 46/9/17 

vn -0.258819 0 -0.965926
f 22/6/10 68/7/26 51/8/26 23/9/10 

vn 1.81968e-16 0 -1
f 68/6/26 67/7/27 52/8/27 51/9/26 

vn 0.258819 0 -0.965926
f 67/6/27 66/7/28 53/8/28 52/9/27 

vn 0.5 0 -0.866025
f 66/6/28 65/7/29 54/8/29 53/9/28 

vn 0.707107 0 -0.707107
f 65/6/29 62/7/30 55/8/30 54/9/29 

vn 0.866025 0 -0.5
f 62/6/30 61/7/31 56/8/31 55/9/30 

v 72.4444 -12.75 -19.4114
vn 0.965926 0 -0.258819
f 61/6/31 128/7/32 57/8/32 56/9/31 

f 61/61/1 59/58/1 128/60/1

v 75 -12.75 -0
vt 29.5276 0
f 128/60/1 59/58/1 129/196/1

vn 1 0 4.19926e-17
f 129/6/33 59/7/16 45/8/16 58/9/33 

f 128/6/32 129/7/33 58/8/33 57/9/32 

vn -0.866025 0 0.5
f 9/6/5 14/7/34 49/8/34 10/9/5 

vn -0.965926 0 0.258819
f 14/6/34 16/7/35 50/8/35 49/9/34 

f 16/6/35 17/7/6 19/8/6 50/9/35 

